<?xml version="1.0" encoding="UTF-8" standalone="no"?>
<!-- Created with Inkscape (http://www.inkscape.org/) -->

<svg
   xmlns:dc="http://purl.org/dc/elements/1.1/"
   xmlns:cc="http://creativecommons.org/ns#"
   xmlns:rdf="http://www.w3.org/1999/02/22-rdf-syntax-ns#"
   xmlns:svg="http://www.w3.org/2000/svg"
   xmlns="http://www.w3.org/2000/svg"
   xmlns:sodipodi="http://sodipodi.sourceforge.net/DTD/sodipodi-0.dtd"
   xmlns:inkscape="http://www.inkscape.org/namespaces/inkscape"
   version="1.1"
   id="svg927"
   width="210.15392mm"
   height="234.50764mm"
   viewBox="0 0 794.28253 886.32812"
   sodipodi:docname="boo.svg"
   inkscape:label="Body"
   inkscape:version="0.92.3 (2405546, 2018-03-11)">
  <title
     id="title1230">Miniature Giant Space Hamster</title>
  <metadata
     id="metadata933">
    <rdf:RDF>
      <cc:Work
         rdf:about="">
        <dc:format>image/svg+xml</dc:format>
        <dc:type
           rdf:resource="http://purl.org/dc/dcmitype/StillImage" />
        <dc:title>Miniature Giant Space Hamster</dc:title>
        <cc:license
           rdf:resource="http://creativecommons.org/licenses/by/4.0/" />
        <dc:date>9/13/2018</dc:date>
        <dc:creator>
          <cc:Agent>
            <dc:title>Ali Rizvi-Santiago</dc:title>
          </cc:Agent>
        </dc:creator>
        <dc:description>Go for the eyes!</dc:description>
      </cc:Work>
      <cc:License
         rdf:about="http://creativecommons.org/licenses/by/4.0/">
        <cc:permits
           rdf:resource="http://creativecommons.org/ns#Reproduction" />
        <cc:permits
           rdf:resource="http://creativecommons.org/ns#Distribution" />
        <cc:requires
           rdf:resource="http://creativecommons.org/ns#Notice" />
        <cc:requires
           rdf:resource="http://creativecommons.org/ns#Attribution" />
        <cc:permits
           rdf:resource="http://creativecommons.org/ns#DerivativeWorks" />
      </cc:License>
    </rdf:RDF>
  </metadata>
  <defs
     id="defs931" />
  <sodipodi:namedview
     pagecolor="#ffffff"
     bordercolor="#666666"
     borderopacity="1"
     objecttolerance="10"
     gridtolerance="10"
     guidetolerance="10"
     inkscape:pageopacity="0"
     inkscape:pageshadow="2"
     inkscape:window-width="1920"
     inkscape:window-height="961"
     id="namedview929"
     showgrid="false"
     inkscape:zoom="0.70710678"
     inkscape:cx="284.20474"
     inkscape:cy="411.21978"
     inkscape:window-x="0"
     inkscape:window-y="25"
     inkscape:window-maximized="1"
     inkscape:current-layer="layer1"
     units="mm" />
  <g
     inkscape:groupmode="layer"
     id="layer1"
     inkscape:label="Foreground"
     transform="translate(-34.063366,536.33582)">
    <g
       id="g1119"
       inkscape:label="Hamster"
       sodipodi:insensitive="true"
       transform="matrix(4.8976269,0,0,4.8976269,-132.76631,-1364.1388)">
      <g
         inkscape:label="Outline"
         id="g975">
        <path
           style="display:inline;fill:#835839;fill-opacity:1;stroke:#000000;stroke-width:1px;stroke-linecap:butt;stroke-linejoin:miter;stroke-opacity:1"
           d="m 128.82472,188.25699 c -5.90746,0.68916 -11.0207,6.22724 -16.04152,7.71176 -3.97546,2.95051 -7.61872,5.84546 -22.603512,10.63086 -15.589042,10.91609 -30.361346,22.48494 -38.978516,38.97851 L 47.625,251.25 l -9.25,12.875 5.75,-4.375 -9.625,17.25 6.75,-8.25 -5.5,11.5 3.886719,-2.67188 c -0.01764,0.1149 -0.03162,0.23072 -0.04883,0.34571 L 36.125,287 l 2.738281,-2.73438 c -0.0053,0.0657 -0.01047,0.13158 -0.01563,0.19727 l -1.754768,10.32012 2.05621,-4.17384 c 1.34506,19.52637 2.970002,35.77941 -1.455736,53.02755 2.889502,-2.63159 5.423481,-6.60019 8.744141,-13.69922 -1.205017,4.29737 -2.421688,10.62649 -3.9375,12.4375 2.600966,-0.79845 5.54002,-5.53154 8.4375,-9.9375 l -3.6875,10.875 c 0.109962,1.09962 5.619845,-8.06818 6.0625,-9.75 0.273564,-1.03938 -1.580641,8.13823 -2.695312,9.60742 2.918302,-2.39383 5.802068,-4.81712 6.507812,-9.10742 -0.41868,3.56149 -1.584272,6.74953 -4,9.3125 1.979167,-1.23179 3.958333,-2.63949 5.9375,-5.1875 l -2.625,5.5625 6.625,-3.8125 c 9.053206,4.9523 23.441035,5.35534 27.603516,5.29883 6.328627,-6.31852 7.810885,-5.39341 12.544926,-9.96289 2.08402,-2.01158 5.88968,-4.42032 11.71484,-6.59571 0.35622,-3.1204 3.40566,-5.59821 5.10547,-7.375 0.87861,-1.79377 6.13022,-8.52199 2.29883,-20.85937 -3.49096,-16.09709 3.35897,-30.26103 12.37304,-36.94531 l 6.54102,-13.1211 c 2.84477,2.89825 5.00375,5.74891 11.17383,7.92774 0.58012,-0.006 0.0764,0.81427 4.64258,0.24219 4.48503,-2.0691 5.32255,-0.57444 7.16406,0 3.7128,0.10178 6.73599,0.33225 7.24805,-4.59571 -1.22769,-2.91029 -3.54017,-4.203 -6.36328,-6.54101 -1.88606,-0.46975 -3.67494,-1.32546 -6.00977,0 -2.00917,-0.99058 -2.95354,-1.61686 -4.5957,-2.76563 -1.10376,-0.90272 -1.64898,-1.32816 -4.05079,-3.33594 2.16435,-2.08975 13.11995,-11.10689 19.08204,-13.85742 3.38938,1.32627 7.88614,3.26932 9.18554,0.51367 4.20939,-0.43761 7.06629,-1.88595 11.13672,-4.5957 1.28109,-1.90123 -1.10329,-2.11036 5.6582,-6.54102 -1.27072,-6.1502 -7.03514,-8.93787 -10.7832,-13.25781 -22.92832,-28.85379 -25.22401,-14.13074 -55.9077,-15.31332 z M 50.617188,343.16992 c -0.08198,0.0673 -0.160197,0.13785 -0.242188,0.20508 0.0753,-0.014 0.156942,-0.0927 0.242188,-0.20508 z"
           id="path5184"
           inkscape:connector-curvature="0"
           sodipodi:nodetypes="ccccccccccccccccccccccscccccccscccccccccccccccccccccc"
           inkscape:label="Body" />
        <path
           style="display:inline;fill:#b9a193;fill-opacity:1;stroke:#000000;stroke-width:1px;stroke-linecap:butt;stroke-linejoin:miter;stroke-opacity:1"
           d="m 178.72124,227.96505 c -3.36776,4.91744 -9.65031,1.96784 -24.21814,16.67915 -1.53253,-1.08638 -2.2495,-1.94623 -4.04913,-3.33617 5.32513,-7.92652 17.46477,-14.91398 20.04437,-13.75775 6.11408,2.74045 7.78833,0.84024 8.2229,0.41477 z"
           id="path5191"
           inkscape:connector-curvature="0"
           sodipodi:nodetypes="cccsc"
           inkscape:label="Chest" />
        <path
           style="fill:#b8a193;fill-opacity:1;stroke:#000000;stroke-width:1px;stroke-linecap:butt;stroke-linejoin:miter;stroke-opacity:1"
           d="m 99.5,261.625 c -0.832339,0.15891 -1.660306,0.33468 -2.472297,0.57174 -0.318882,0.0931 0.583553,4.38251 1.229149,6.26592 -1.649027,-0.7728 -3.389632,-4.79438 -4.683787,-3.63041 -0.119598,0.21776 0.249636,1.95535 0.99074,5.68549 0.113521,0.57138 -2.342846,-3.9487 -2.928679,-3.84225 -1.009306,0.1834 -1.597025,1.16161 -2.12536,2.33818 0.17817,1.61254 0.804045,2.96868 1.392796,4.44445 -0.694141,-0.39805 -1.394525,-1.81185 -2.115453,-2.17296 -0.407479,2.74723 -0.818525,5.81753 0.111329,7.35156 -1.17367,-0.58754 -1.560037,-2.00776 -2.339844,-1.5586 -0.519893,2.34472 -0.426082,4.67063 1.335937,7.24024 -1.250141,-0.55692 -2.600895,-1.41611 -3.453125,-0.7793 0.556738,1.29979 1.893145,2.09446 3.341797,3.23047 -3.684669,-0.20173 -2.501021,1.4219 -3.158203,2.35547 5.114862,0.89465 7.733437,5.38395 9.732422,8.78516 -2.069383,-1.04232 -3.194268,-2.8527 -4.791016,-3.23047 1.367825,2.15158 3.270975,4.48922 4.56836,5.68164 l -2.896485,-0.44727 c 7e-6,8e-5 -0.03441,-9e-5 -0.03516,0 0.06471,0.38815 0.12406,0.78721 0.171875,1.21094 1.509669,3.04167 2.319228,6.08333 7,9.125 2.699094,1.81395 6.066314,8.58236 4.470704,13.93945 -5.569472,-1.55833 -6.386299,-0.43418 -8.345704,1.31055 -2.625112,3.70833 -5.387353,7.41667 -9,11.125 3.802635,0.16949 7.370573,1.75703 9.097656,2.51953 3.025673,-2.53174 3.535512,-3.07536 8.654298,-3.60547 4.45,-4.51347 8.3145,-5.64733 12.33985,-7.88867 0.64128,-2.51531 1.7992,-4.16551 4.43945,-6.34766 4.9739,-1.2252 5.02235,-8.05444 3.71289,-15.02539 -0.0116,-0.0556 -0.0199,-0.11047 -0.0312,-0.16601 0.005,-0.002 0.0111,0.007 0.0156,0.004 1.08587,-0.67612 2.666,1.76571 3.55078,2.99024 -0.80094,-5.32095 -2.93354,-8.24449 -4.8418,-11.57227 -0.0175,-0.20316 -0.0353,-0.40676 -0.0508,-0.60937 0.33087,-2.91432 1.99526,-1.62829 4.18555,1.31055 -0.626,-5.72835 -2.23404,-6.55958 -3.53516,-9.8125 l 3.71094,3.80078 c -0.30154,-3.286 -1.51627,-4.74439 -2.47461,-6.7168 l 3.625,3.00586 c -0.71291,-3.01437 -2.03007,-3.91353 -3.18164,-5.39258 l 5.03711,3.625 c -0.96621,-2.63604 -1.90098,-5.65106 -3.09375,-5.56836 0.75727,-0.90842 2.13067,-0.0944 4.0664,2.29688 -0.41134,-2.52549 -0.46118,-5.53184 -2.20898,-6.27539 0.71985,-0.71373 1.42004,-1.49249 2.82812,0.0879 -1.13502,-9.15583 0.91118,-10.6747 3.35742,-13.78711 5.86307,-3.4708 10.53761,-6.04645 14.26448,-6.76891 -5.19681,-3.05958 -5.8395,-4.55302 -8.05755,-6.65807 C 122.02455,243.85191 107.7643,248.71175 99.5,261.625 Z"
           id="path5302"
           inkscape:connector-curvature="0"
           sodipodi:nodetypes="csccsscccccccccccccccccccccccccccccccccccccccccccc"
           inkscape:label="Belly" />
        <path
           style="display:inline;fill:#835839;fill-opacity:1;stroke:#000000;stroke-width:1px;stroke-linecap:butt;stroke-linejoin:miter;stroke-opacity:1"
           d="m 163.34327,236.88814 c 1.40047,2.43462 5.91644,5.28645 3.68248,7.71892 -1.15887,1.53744 -6.31606,1.97631 -7.92672,2.80342 -1.8409,-0.60744 -3.14218,-1.92241 -4.59593,-2.76628 3.8462,-3.47991 4.09599,-3.79411 8.84017,-7.75606 z"
           id="path5189"
           inkscape:connector-curvature="0"
           sodipodi:nodetypes="ccccc"
           inkscape:label="Left Arm" />
      </g>
      <g
         inkscape:label="Feet"
         id="g965">
        <path
           style="display:inline;fill:#ffcdcd;fill-opacity:1;stroke:#000000;stroke-width:1px;stroke-linecap:butt;stroke-linejoin:miter;stroke-opacity:1"
           d="m 106.04265,348.86446 c 0.0856,-2.41449 -0.39131,-3.4083 -2.88868,-5.66937 1.46355,-0.57714 3.8083,1.81135 6.5,4.81841 -0.0942,-1.60417 -0.74338,-4.34442 -2.29623,-5.94859 1.6414,0.36318 4.9631,3.91993 7.09912,5.60209 0.53053,-2.93844 -2.64296,-5.59669 -4.93825,-7.98776 -2.34912,-2.44716 8.79746,4.17011 8.65558,3.94457 -4.62262,-7.3482 -13.48984,-8.97127 -18.835562,-7.47494 -6.82827,2.6799 -4.83433,4.28428 -8.672347,9.08661 5.422807,-0.37851 7.146947,-4.19652 15.376369,3.62898 z"
           id="path5231"
           inkscape:connector-curvature="0"
           sodipodi:nodetypes="cccccssccc"
           inkscape:label="Right" />
        <path
           style="fill:#ffcdcd;fill-opacity:1;stroke:#000000;stroke-width:1px;stroke-linecap:butt;stroke-linejoin:miter;stroke-opacity:1"
           d="m 106.83395,332.56934 c 7.43216,2.89971 9.4646,-0.16419 12.08509,0.91343 4.12773,0.20614 6.95413,3.81181 8.51255,4.92477 0.39581,-1.54862 -1.12382,-3.84986 -3.19268,-6.22004 3.56221,1.18195 5.00273,3.45971 6.64459,5.00518 -0.14148,-1.70131 -2.7915,-5.00141 -3.0625,-5.80918 2.35223,0.95457 4.03704,2.80429 6.28846,4.26295 0.12897,-1.90508 -2.72943,-3.88175 -3.40228,-4.68952 0.75621,0.20928 4.07966,1.19997 6.1446,1.77641 -2.60219,-4.7694 -16.47463,-7.82519 -21.25918,-5.08325 -2.98877,1.43312 -5.88245,2.67388 -8.75865,4.91925 z"
           id="path5267"
           inkscape:connector-curvature="0"
           sodipodi:nodetypes="ccccccccccc"
           inkscape:label="Left" />
      </g>
      <g
         inkscape:label="Hands"
         id="g969">
        <path
           style="fill:#ffcdcd;fill-opacity:1;stroke:#000000;stroke-width:1px;stroke-linecap:butt;stroke-linejoin:miter;stroke-opacity:1"
           d="m 164.22555,258.54742 c 1.19637,3.38937 1.10042,6.18596 1.33695,11.01508 2.51702,-4.03131 2.60057,-4.65867 3,-8.25 l 1.1875,9.625 c 1.34392,-1.41933 1.31354,-3.64927 1.0625,-9.375 l 2.6875,8.75 c 1.21739,-2.87029 0.79771,-5.67926 -0.3125,-11.1875 l 3.75,9.0625 c 0.68355,-8.73126 -1.74034,-11.60179 -5.125,-14.9375 -0.39872,4.2238 -2.85515,6.07333 -7.58695,5.29742 z"
           id="path5270"
           inkscape:connector-curvature="0"
           sodipodi:nodetypes="cccccccccc"
           inkscape:label="Right" />
        <path
           style="fill:#ffcdcd;fill-opacity:1;stroke:#000000;stroke-width:1px;stroke-linecap:butt;stroke-linejoin:miter;stroke-opacity:1"
           d="m 171.8125,253.25 c -0.0302,-1.41317 -1.56746,-3.27822 -2.3863,-4.16311 -3.41689,-3.69251 3.19941,1.04571 4.82015,3.53659 0.94031,-0.84319 -2.00686,-4.29182 -3.43934,-6.14127 3.39151,2.83235 3.12771,2.1881 5.19299,5.51779 1.11244,-2.7295 -0.31132,-3.28757 -3.28549,-6.64578 3.2658,2.24069 3.64361,2.13822 6.41049,6.20828 -1.26595,-5.08308 -2.50029,-4.81906 -5.3261,-7.6586 3.86475,2.01879 4.13761,2.1403 6.36715,5.64565 -1.85305,-8.09447 -8.25164,-8.13731 -13.33637,-8.45536 2.19736,3.05228 -0.80615,4.79237 -5.87432,5.71071 3.09144,0.4259 7.53407,3.23962 10.85714,6.4451 z"
           id="path5272"
           inkscape:connector-curvature="0"
           sodipodi:nodetypes="cscccccccccc"
           inkscape:label="Left" />
      </g>
      <g
         inkscape:label="Face"
         id="g991">
        <path
           style="fill:none;stroke:#000000;stroke-width:1px;stroke-linecap:butt;stroke-linejoin:miter;stroke-opacity:1"
           d="m 184.73242,203.57031 c -2.00625,-2.37615 -7.94674,-6.0527 -9.27433,-6.39288"
           id="path2540"
           inkscape:connector-curvature="0"
           sodipodi:nodetypes="cc"
           inkscape:label="Nose Bridge" />
        <path
           style="fill:none;stroke:#000000;stroke-width:1px;stroke-linecap:butt;stroke-linejoin:miter;stroke-opacity:1"
           d="m 189.85817,223.36886 c -11.94428,7.31639 -14.20868,5.21875 -22.01177,-3.83864 -2.04231,-2.16793 -6.01845,-2.54815 -7.96024,0.22072"
           id="path5201"
           inkscape:connector-curvature="0"
           sodipodi:nodetypes="ccc"
           inkscape:label="Smile" />
        <path
           style="fill:#ffcdcd;fill-opacity:1;stroke:#000000;stroke-width:1px;stroke-linecap:butt;stroke-linejoin:miter;stroke-opacity:1"
           d="m 195.51503,216.82812 c 1.02435,0.6677 -1.55511,3.70225 -5.65686,6.54074 0.71132,-1.44353 -0.55082,-2.53027 1.46618,-4.61728 0.74958,-0.9019 2.86644,-1.13649 4.19068,-1.92346"
           id="path5306"
           inkscape:connector-curvature="0"
           sodipodi:nodetypes="cccc"
           inkscape:label="Nose" />
        <g
           id="g6811"
           inkscape:label="Eyeball"
           transform="translate(1.5,-0.875)">
          <path
             inkscape:label="Eye"
             sodipodi:nodetypes="cccc"
             inkscape:connector-curvature="0"
             id="path5199"
             d="m 160.15969,205.51441 c 4.73773,1.56768 8.87336,1.73048 12.19759,0 -0.38212,-0.87376 -0.55861,-1.67898 -2.2981,-3.0052 -5.44283,-1.44741 -7.67898,0.76995 -9.89949,3.0052 z"
             style="fill:#fefdfd;fill-opacity:1;stroke:#000000;stroke-width:1px;stroke-linecap:butt;stroke-linejoin:miter;stroke-opacity:1" />
          <circle
             inkscape:label="Iris"
             r="1.1068244"
             cy="204.28125"
             cx="166.9375"
             id="path5300"
             style="opacity:0.99800002;fill:#000000;fill-opacity:0.9372549;stroke:#000000;stroke-width:3.20035124;stroke-miterlimit:4;stroke-dasharray:none;stroke-opacity:1" />
        </g>
        <g
           inkscape:label="Ears"
           id="g1057">
          <path
             style="fill:#835839;fill-opacity:0.9372549;stroke:#000000;stroke-width:1;stroke-linecap:butt;stroke-linejoin:miter;stroke-miterlimit:4;stroke-dasharray:none;stroke-opacity:1"
             d="m 145.51728,187.28678 c 0.31104,-3.79287 -1.17844,-5.4514 1.22354,-10.49883 0.34547,-0.69785 -0.16539,-4.43924 -0.75889,-7.48452 0.52234,0.97753 13.483,5.02176 12.60293,16.25902 -3.54754,0.43962 -6.31015,0.63152 -13.06758,1.72433 z"
             id="path5197"
             inkscape:connector-curvature="0"
             sodipodi:nodetypes="ccccc"
             inkscape:label="Left Ear" />
          <g
             id="g6807"
             inkscape:label="Right Ear">
            <path
               style="fill:#835839;fill-opacity:1;stroke:#000000;stroke-width:1px;stroke-linecap:butt;stroke-linejoin:miter;stroke-opacity:1"
               d="m 145.39916,192.52129 c -1.29278,-5.61223 -5.84741,-9.75741 -8.04369,-11.75567 -7.63094,-6.17206 -7.37725,-1.4424 -8.66211,5.12696 -0.41961,10.97205 3.38671,16.19358 13.08203,20.15234"
               id="path5195"
               inkscape:connector-curvature="0"
               sodipodi:nodetypes="cccc"
               inkscape:label="Outer Ear" />
            <path
               inkscape:label="Inner Ear"
               sodipodi:nodetypes="cccc"
               inkscape:connector-curvature="0"
               id="path6799-1"
               d="m 141.68695,200.74236 c -5.04975,-3.61352 -6.65131,-5.05494 -8.13173,-10.51821 -0.19171,-12.53693 5.09599,-0.55539 8.04334,3.18197 z"
               style="display:inline;fill:#ffaaaa;fill-opacity:0.9372549;stroke:#000000;stroke-width:1px;stroke-linecap:butt;stroke-linejoin:miter;stroke-opacity:1" />
          </g>
        </g>
        <g
           id="g2497"
           inkscape:label="Whiskers">
          <ellipse
             ry="0.55863875"
             rx="0.58241063"
             cy="219.90802"
             cx="188.34877"
             id="path2376-62"
             style="opacity:0.99823531;fill:#000000;fill-opacity:1;stroke:#000000;stroke-width:0.02133899;stroke-miterlimit:4;stroke-dasharray:none;stroke-opacity:1"
             inkscape:label="Whisker 1" />
          <ellipse
             ry="0.55863875"
             rx="0.58241063"
             cy="221.54793"
             cx="187.52298"
             id="path2376-62-2"
             style="opacity:0.99823531;fill:#000000;fill-opacity:1;stroke:#000000;stroke-width:0.02133899;stroke-miterlimit:4;stroke-dasharray:none;stroke-opacity:1"
             inkscape:label="Whisker 2" />
          <ellipse
             ry="0.55863875"
             rx="0.58241063"
             cy="219.56546"
             cx="186.18721"
             id="path2376-62-0"
             style="opacity:0.99823531;fill:#000000;fill-opacity:1;stroke:#000000;stroke-width:0.02133899;stroke-miterlimit:4;stroke-dasharray:none;stroke-opacity:1"
             inkscape:label="Whisker 3" />
          <ellipse
             ry="0.55863875"
             rx="0.58241063"
             cy="219.58455"
             cx="184.11746"
             id="path2376-62-9"
             style="opacity:0.99823531;fill:#000000;fill-opacity:1;stroke:#000000;stroke-width:0.02133899;stroke-miterlimit:4;stroke-dasharray:none;stroke-opacity:1"
             inkscape:label="Whisker 4" />
          <ellipse
             ry="0.55863875"
             rx="0.58241063"
             cy="221.31578"
             cx="185.26067"
             id="path2376-62-9-2"
             style="opacity:0.99823531;fill:#000000;fill-opacity:1;stroke:#000000;stroke-width:0.02133899;stroke-miterlimit:4;stroke-dasharray:none;stroke-opacity:1"
             inkscape:label="Whisker 5" />
          <ellipse
             ry="0.55863875"
             rx="0.58241063"
             cy="223.10355"
             cx="186.02589"
             id="path2376-62-9-2-6"
             style="opacity:0.99823531;fill:#000000;fill-opacity:1;stroke:#000000;stroke-width:0.02133899;stroke-miterlimit:4;stroke-dasharray:none;stroke-opacity:1"
             inkscape:label="Whisker 6" />
        </g>
      </g>
    </g>
  </g>
</svg>
